# xmcd
#
# Track frame offsets: 
#        150
#        3682
#        28808
#        56059
#        78894
#        126767
#        149906
#        193175
#        214873
#        257614
#        292365
#
# Disc length: 4241 seconds
#
# Revision: 2
# Processed by: cddbd v1.5.2PL0 Copyright (c) Steve Scherf et al.
# Submitted via: ExactAudioCopy v0.99pb5
#
DISCID=b3108f0b
DTITLE=Devil Blues - alive
DYEAR=2008
DGENRE=Blues
TTITLE0=Intro
TTITLE1=Livin' For The City
TTITLE2=They Love Money (Pit Bull)
TTITLE3=Tell Me
TTITLE4=Dream
TTITLE5=Pride and Joy
TTITLE6=Sounds Of Freedom - Come Fly With Me
TTITLE7=Lucky In Love
TTITLE8=I Didn't Want
TTITLE9=Who Knows - Machine Gun
TTITLE10=You Don't Have To Go
EXTD=Hot Polish Blues
EXTT0=
EXTT1=
EXTT2=
EXTT3=
EXTT4=
EXTT5=
EXTT6=
EXTT7=
EXTT8=
EXTT9=
EXTT10=
PLAYORDER=
